<svg width="10" height="15" viewBox="0 0 10 15" fill="none" xmlns="http://www.w3.org/2000/svg">
<path d="M7.42364 11.7207C7.6189 11.9159 7.6189 12.2325 7.42364 12.4278C7.22838 12.623 6.91179 12.623 6.71653 12.4278L1.76679 7.47802C1.57152 7.28276 1.57152 6.96618 1.76679 6.77092C1.96205 6.57566 2.27863 6.57566 2.47389 6.77092L7.42364 11.7207Z" stroke="#3190FF" stroke-width="2"/>
<path d="M7.42364 2.47465C7.6189 2.27938 7.6189 1.9628 7.42364 1.76754C7.22838 1.57228 6.91179 1.57228 6.71653 1.76754L1.76678 6.71729C1.57152 6.91255 1.57152 7.22913 1.76678 7.42439C1.96205 7.61966 2.27863 7.61966 2.47389 7.42439L7.42364 2.47465Z" stroke="#3190FF" stroke-width="2"/>
</svg>
