<?xml version="1.0" encoding="utf-8"?>
<!-- Generator: Adobe Illustrator 17.1.0, SVG Export Plug-In . SVG Version: 6.00 Build 0)  -->
<!DOCTYPE svg PUBLIC "-//W3C//DTD SVG 1.1//EN" "http://www.w3.org/Graphics/SVG/1.1/DTD/svg11.dtd">
<svg version="1.1" id="Слой_1" xmlns="http://www.w3.org/2000/svg" xmlns:xlink="http://www.w3.org/1999/xlink" x="0px" y="0px"
	 viewBox="287.5 386 37 20" enable-background="new 287.5 386 37 20" xml:space="preserve">
<path fill="#FFFFFF" d="M324.4,396.6c0.1-0.2,0.1-0.4,0.1-0.6c0-0.2,0-0.4-0.1-0.6l0,0c-0.1-0.2-0.2-0.4-0.3-0.5l-8.3-8.3
	c-0.6-0.6-1.6-0.6-2.2,0c-0.6,0.6-0.6,1.6,0,2.2l5.6,5.6H289c-0.8,0.1-1.5,0.7-1.5,1.6s0.7,1.5,1.5,1.5h30.2l-5.6,5.6
	c-0.6,0.6-0.6,1.6,0,2.2c0.6,0.6,1.6,0.6,2.2,0l8.3-8.3C324.2,397,324.3,396.8,324.4,396.6L324.4,396.6z"/>
</svg>
