<?xml version="1.0" encoding="utf-8"?>
<!-- Generator: Adobe Illustrator 23.0.1, SVG Export Plug-In . SVG Version: 6.00 Build 0)  -->
<svg version="1.1" id="Слой_1" xmlns="http://www.w3.org/2000/svg" xmlns:xlink="http://www.w3.org/1999/xlink" x="0px" y="0px"
	 viewBox="0 0 37 20" style="enable-background:new 0 0 37 20;" xml:space="preserve">
<style type="text/css">
	.st0{fill:#2F80ED;stroke:#2F80ED;stroke-width:1.5;}
</style>
<path class="st0" d="M1.5,9.1h31c0.4,0,0.8,0.3,0.8,0.8l0,0c0,0.4-0.3,0.8-0.8,0.8h-31c-0.4,0-0.8-0.3-0.8-0.8l0,0
	C0.8,9.5,1.1,9.1,1.5,9.1z"/>
<path class="st0" d="M26.4,17.1l7.8-7.8c0.3-0.3,0.8-0.3,1.1,0l0,0c0.3,0.3,0.3,0.8,0,1.1l-7.8,7.8c-0.3,0.3-0.8,0.3-1.1,0l0,0
	C26.1,17.9,26.1,17.4,26.4,17.1z"/>
<path class="st0" d="M27.4,1.6l7.8,7.8c0.3,0.3,0.3,0.8,0,1.1l0,0c-0.3,0.3-0.8,0.3-1.1,0l-7.8-7.8c-0.3-0.3-0.3-0.8,0-1.1v0
	C26.7,1.3,27.1,1.3,27.4,1.6z"/>
</svg>
