<?xml version="1.0" encoding="utf-8"?>
<!-- Generator: Adobe Illustrator 17.1.0, SVG Export Plug-In . SVG Version: 6.00 Build 0)  -->
<!DOCTYPE svg PUBLIC "-//W3C//DTD SVG 1.1//EN" "http://www.w3.org/Graphics/SVG/1.1/DTD/svg11.dtd">
<svg version="1.1" id="Слой_1" xmlns="http://www.w3.org/2000/svg" xmlns:xlink="http://www.w3.org/1999/xlink" x="0px" y="0px"
	 viewBox="287.5 386 37 20" enable-background="new 287.5 386 37 20" xml:space="preserve">
<path fill="#FFFFFF" d="M287.6,395.4c-0.1,0.2-0.1,0.4-0.1,0.6c0,0.2,0,0.4,0.1,0.6l0,0c0.1,0.2,0.2,0.4,0.3,0.5l8.3,8.3
	c0.6,0.6,1.6,0.6,2.2,0c0.6-0.6,0.6-1.6,0-2.2l-5.6-5.6H323c0.9,0,1.5-0.7,1.5-1.5s-0.7-1.5-1.5-1.5h-30.2l5.6-5.6
	c0.6-0.6,0.6-1.6,0-2.2c-0.6-0.6-1.6-0.8-2.2-0.2l-8.2,8.3C287.8,395,287.7,395.2,287.6,395.4L287.6,395.4z"/>
</svg>
