<?xml version="1.0" encoding="utf-8"?>
<!-- Generator: Adobe Illustrator 22.0.1, SVG Export Plug-In . SVG Version: 6.00 Build 0)  -->
<svg version="1.1" id="Слой_1" xmlns="http://www.w3.org/2000/svg" xmlns:xlink="http://www.w3.org/1999/xlink" x="0px" y="0px"
	 viewBox="0 0 37 20" style="enable-background:new 0 0 37 20;" xml:space="preserve">
<style type="text/css">
	.st0{fill:#2F80ED;}
</style>
<path class="st0" d="M0.1,9.4C0,9.6,0,9.8,0,10s0,0.4,0.1,0.6c0,0,0,0,0,0c0.1,0.2,0.2,0.4,0.3,0.5l8.3,8.3c0.6,0.6,1.6,0.6,2.2,0
	s0.6-1.6,0-2.2l-5.6-5.6h30.2c0.9,0,1.5-0.7,1.5-1.5s-0.7-1.5-1.5-1.5H5.3l5.6-5.6c0.6-0.6,0.6-1.6,0-2.2S9.3,0,8.7,0.6L0.5,8.9
	C0.3,9,0.2,9.2,0.1,9.4C0.1,9.4,0.1,9.4,0.1,9.4z"/>
</svg>
