<svg width="10" height="15" viewBox="0 0 10 15" fill="none" xmlns="http://www.w3.org/2000/svg">
<path d="M1.76777 11.7207C1.5725 11.9159 1.5725 12.2325 1.76777 12.4278C1.96303 12.623 2.27961 12.623 2.47487 12.4278L7.42462 7.47802C7.61988 7.28276 7.61988 6.96618 7.42462 6.77092C7.22936 6.57566 6.91278 6.57566 6.71751 6.77092L1.76777 11.7207Z" stroke="#3190FF" stroke-width="2"/>
<path d="M1.76777 2.47465C1.5725 2.27938 1.5725 1.9628 1.76777 1.76754C1.96303 1.57228 2.27961 1.57228 2.47487 1.76754L7.42462 6.71729C7.61988 6.91255 7.61988 7.22913 7.42462 7.42439C7.22936 7.61966 6.91278 7.61966 6.71751 7.42439L1.76777 2.47465Z" stroke="#3190FF" stroke-width="2"/>
</svg>
