<?xml version="1.0" encoding="utf-8"?>
<!-- Generator: Adobe Illustrator 22.0.1, SVG Export Plug-In . SVG Version: 6.00 Build 0)  -->
<svg version="1.1" id="Слой_1" xmlns="http://www.w3.org/2000/svg" xmlns:xlink="http://www.w3.org/1999/xlink" x="0px" y="0px"
	 viewBox="0 0 37 20" style="enable-background:new 0 0 37 20;" xml:space="preserve">
<style type="text/css">
	.st0{fill:#2F80ED;}
</style>
<path class="st0" d="M36.9,10.6C37,10.4,37,10.2,37,10s0-0.4-0.1-0.6c0,0,0,0,0,0c-0.1-0.2-0.2-0.4-0.3-0.5l-8.3-8.3
	c-0.6-0.6-1.6-0.6-2.2,0s-0.6,1.6,0,2.2l5.6,5.6H1.5C0.7,8.5,0,9.1,0,10s0.7,1.5,1.5,1.5h30.2l-5.6,5.6c-0.6,0.6-0.6,1.6,0,2.2
	s1.6,0.6,2.2,0l8.3-8.3C36.7,11,36.8,10.8,36.9,10.6C36.9,10.6,36.9,10.6,36.9,10.6z"/>
</svg>
